<svg xmlns="http://www.w3.org/2000/svg" xmlns:xlink="http://www.w3.org/1999/xlink" viewBox="0 0 600 500">
  <defs>
    <path id="a" d="M0 139h107a8 8 0 0 1 8 8v13h85V0H0v139Z"/>
    <path id="c" d="M0 0h115v210H0z"/>
  </defs>
  <path fill="#00FFE0" fill-rule="nonzero" d="M91 262.5c0-1.9-1.6-3.5-3.5-3.5a3.5 3.5 0 0 0-3.5 3.5c0 1.9 1.6 3.5 3.5 3.5s3.5-1.6 3.5-3.5Zm0-14c0-1.9-1.6-3.5-3.5-3.5a3.5 3.5 0 0 0-3.5 3.5c0 1.9 1.6 3.5 3.5 3.5s3.5-1.6 3.5-3.5Zm0-14c0-1.9-1.6-3.5-3.5-3.5a3.5 3.5 0 0 0-3.5 3.5c0 1.9 1.6 3.5 3.5 3.5s3.5-1.6 3.5-3.5Zm0-14c0-1.9-1.6-3.5-3.5-3.5a3.5 3.5 0 0 0-3.5 3.5c0 1.9 1.6 3.5 3.5 3.5s3.5-1.6 3.5-3.5Zm0-14c0-1.9-1.6-3.5-3.5-3.5a3.5 3.5 0 0 0-3.5 3.5c0 1.9 1.6 3.5 3.5 3.5s3.5-1.6 3.5-3.5Zm0-14c0-1.9-1.6-3.5-3.5-3.5a3.5 3.5 0 0 0-3.5 3.5c0 1.9 1.6 3.5 3.5 3.5s3.5-1.6 3.5-3.5Zm0-168c0-1.9-1.6-3.5-3.5-3.5a3.5 3.5 0 0 0-3.5 3.5c0 1.9 1.6 3.5 3.5 3.5s3.5-1.6 3.5-3.5Zm0-14C91 8.6 89.4 7 87.5 7a3.5 3.5 0 0 0-3.5 3.5c0 1.9 1.6 3.5 3.5 3.5s3.5-1.6 3.5-3.5Zm14 252c0-1.9-1.6-3.5-3.5-3.5a3.5 3.5 0 0 0-3.5 3.5c0 1.9 1.6 3.5 3.5 3.5 2 0 3.5-1.6 3.5-3.5Zm14 0c0-1.9-1.6-3.5-3.5-3.5a3.5 3.5 0 0 0-3.5 3.5c0 1.9 1.6 3.5 3.5 3.5 2 0 3.5-1.6 3.5-3.5Zm14 0c0-1.9-1.6-3.5-3.5-3.5a3.5 3.5 0 0 0-3.5 3.5c0 1.9 1.6 3.5 3.5 3.5 2 0 3.5-1.6 3.5-3.5Zm448 101c0-1.9 1.6-3.5 3.5-3.5s3.5 1.6 3.5 3.5-1.6 3.5-3.5 3.5a3.5 3.5 0 0 1-3.5-3.5Zm-14 0c0-1.9 1.6-3.5 3.5-3.5s3.5 1.6 3.5 3.5-1.6 3.5-3.5 3.5a3.5 3.5 0 0 1-3.5-3.5Zm-14 0c0-1.9 1.6-3.5 3.5-3.5s3.5 1.6 3.5 3.5-1.6 3.5-3.5 3.5a3.5 3.5 0 0 1-3.5-3.5Zm-14 0c0-1.9 1.6-3.5 3.5-3.5s3.5 1.6 3.5 3.5-1.6 3.5-3.5 3.5a3.5 3.5 0 0 1-3.5-3.5Zm-14 0c0-1.9 1.6-3.5 3.5-3.5s3.5 1.6 3.5 3.5-1.6 3.5-3.5 3.5a3.5 3.5 0 0 1-3.5-3.5Zm-14 0c0-1.9 1.6-3.5 3.5-3.5s3.5 1.6 3.5 3.5-1.6 3.5-3.5 3.5a3.5 3.5 0 0 1-3.5-3.5Zm-14 0c0-1.9 1.6-3.5 3.5-3.5s3.5 1.6 3.5 3.5-1.6 3.5-3.5 3.5a3.5 3.5 0 0 1-3.5-3.5Zm-14 0c0-1.9 1.6-3.5 3.5-3.5s3.5 1.6 3.5 3.5-1.6 3.5-3.5 3.5a3.5 3.5 0 0 1-3.5-3.5Z"/>
  <g transform="translate(370 90)">
    <mask id="b" fill="#fff">
      <use xlink:href="#a"/>
    </mask>
    <g fill-rule="nonzero" mask="url(#b)">
      <path fill="#323232" stroke="#0B0C0C" stroke-width="6" d="M197 3v154H3V3h194Z"/>
      <path fill="#B1B4B6" d="M43.6 30 23.3 18.4c-.4-.2-.8-.4-1.2-.4a2 2 0 0 0-2 2c0 .9.5 1.6 1.3 2l15.8 9-16 9.1a2 2 0 0 0-1.2 2c0 1 .9 1.9 2 1.9.4 0 .9-.2 1.2-.4l20.3-11.7c.5-.3.6-1 .4-1.5 0-.2-.2-.3-.3-.4Zm30.8 24.5c-.5-.4-1.1-.6-1.7-.5H47.2c-.6 0-1.2.1-1.6.5-.8.7-.8 2 0 2.9.5.5 1 .7 1.6.6h25.5c.6 0 1.2-.1 1.7-.5a2 2 0 0 0 0-3Z"/>
    </g>
  </g>
  <g transform="translate(20 240)">
    <mask id="d" fill="#fff">
      <use xlink:href="#c"/>
    </mask>
    <path fill="#EDEDED" stroke="#A5A9AB" stroke-width="2" d="M201 4 1 204V4h200Zm-75 29.5H31v95l95-95Z" mask="url(#d)" transform="matrix(1 0 0 -1 0 208)"/>
    <path fill="#505A5F" d="M1 193h2v11H1Zm4 7h1v4H5Zm13 0h1v4h-1Zm13 0h1v4h-1Zm13 0h1v4h-1Zm13 0h1v4h-1Zm13 0h1v4h-1Zm13 0h1v4h-1Zm13 0h1v4h-1Zm13 0h1v4h-1ZM8 198h1v6H8Zm13 0h1v6h-1Zm13 0h1v6h-1Zm13 0h1v6h-1Zm13 0h1v6h-1Zm13 0h1v6h-1Zm13 0h1v6h-1Zm13 0h1v6h-1Zm13 0h1v6h-1Zm-101 2h1v4h-1Zm13 0h1v4h-1Zm13 0h1v4h-1Zm13 0h1v4h-1Zm13 0h1v4h-1Zm13 0h1v4h-1Zm13 0h1v4h-1Zm13 0h1v4h-1Zm13 0h1v4h-1Zm-101-7h2v11h-2Zm13 0h2v11h-2Zm13 0h2v11h-2Zm13 0h2v11h-2Zm13 0h2v11h-2Zm13 0h2v11h-2Zm13 0h2v11h-2Zm13 0h2v11h-2Zm13 0h2v11h-2Z" mask="url(#d)"/>
  </g>
  <path fill="#FFF" d="M138 236h340v230H138z" opacity=".4"/>
  <path fill="#1E1E1E" fill-rule="nonzero" d="M476.4 228.5c5.6 0 9.1 3.8 9.1 9.8v238.2h-355V238.3c0-6 3.5-9.8 9-9.8h337ZM280 236H142a4 4 0 0 0-4 4v226h340V240a4 4 0 0 0-4-4H336v6a3 3 0 0 1-3 3h-50a3 3 0 0 1-3-3v-6Z"/>
  <path fill="#EDEDED" fill-rule="nonzero" d="M486 476h-1V237.5c0-5-3.5-8.5-8.5-8.5h-337c-5 0-8.5 3.5-8.5 8.5V476h-1V237.5c0-5.5 4-9.5 9.5-9.5h337c5.5 0 9.5 4 9.5 9.5V476Z"/>
  <path fill="#808283" fill-rule="nonzero" d="M269 476h78v7h-78z"/>
  <path fill="#B1B4B6" fill-rule="nonzero" d="M339.5 482.5H276c-5 0-6.5-3-6.5-6.5H80v10a8 8 0 0 0 8 8h440a8 8 0 0 0 8-8v-10H346.5c0 4-2 6.5-7 6.5Z"/>
  <path stroke="#EDEDED" d="M536 476.5H346.5c0 4-2.5 6-6.5 6h-64c-4 0-6.5-2-6.5-6H80"/>
  <path fill="#A5A9AB" fill-rule="nonzero" d="M80 486v.1a8 8 0 0 0 8 7.9h440a7.9 7.9 0 0 0 7.9-8 8.5 8.5 0 0 1-5.5 2H86c-2.1 0-4.2-.7-5.9-2Z"/>
  <path fill="#000" fill-opacity=".5" fill-rule="nonzero" d="M105 496h406l20 4H85z"/>
  <path fill="#505A5F" fill-rule="nonzero" d="m107.4 494 5.7 3h38.6l5.7-3zm352 0 5.7 3h38.6l5.7-3z"/>
  <path fill="#FFF" fill-rule="nonzero" stroke="#0B0C0C" stroke-width="2" d="M52 34h196v148H52z"/>
  <path fill="#0B0C0C" d="M52 34h197v28H52z"/>
  <path fill="#B1B4B6" fill-rule="nonzero" d="M63 72h82v9H63v-9Zm0 21h113v9H63v-9Z"/>
  <path fill="#FD0" fill-rule="nonzero" d="M63 114h96v15H63z"/>
  <path fill="#0B0C0C" fill-rule="nonzero" d="M63 129h96v2H63z"/>
  <g fill-rule="nonzero">
    <path fill="#FFF" fill-opacity=".5" d="M284 149h28v9h-28v-9Zm0-56h28v9h-28v-9Z"/>
    <g transform="translate(224 129)">
      <circle cx="24" cy="24" r="20" fill="#FFF"/>
      <path fill="#0B0C0C" d="M24 8a16 16 0 0 1 16 16 16 16 0 0 1-16 16A16 16 0 0 1 8 24 16 16 0 0 1 24 8m0-4C13 4 4 13 4 24s9 20 20 20 20-9 20-20S35 4 24 4Z"/>
      <path fill="#FD0" d="M24 4c11 0 20 9 20 20s-9 20-20 20S4 35 4 24 13 4 24 4m0-4a24 24 0 1 0 0 48 24 24 0 1 0 0-48Z"/>
      <circle cx="24" cy="24" r="10" fill="#0B0C0C"/>
    </g>
    <path fill="#FFF" d="M229 79h36v36h-36z"/>
    <path fill="#0B0C0C" d="M263 81v32h-32V81h32m4-4h-40v40h40V77Z"/>
    <path fill="#0B0C0C" d="m260 90.5-3.5-3.5-12.9 12.8-5.1-5-3.5 3.6 8.6 8.6L260 90.5"/>
    <path fill="#FD0" d="M267 77v40h-40V77h40m3-3h-46v46h46V74Z"/>
  </g>
  <path fill="#FFF" fill-rule="nonzero" stroke="#1D70B8" stroke-width="2" d="M179 280h258v148H179z"/>
  <path fill="#1D70B8" fill-rule="nonzero" d="M179 280h258v28H179z"/>
  <text fill="#FFF" font-family="system-ui, sans-serif" font-size="16" transform="translate(180 280)">
    <tspan x="16" y="20">Service</tspan>
  </text>
  <path fill="#B1B4B6" fill-rule="nonzero" d="M196 322h82v9h-82v-9Zm0 18h171v9H196v-9Zm0 18h171v9H196v-9Zm0 18h113v9H196v-9Z"/>
  <path fill="#00703C" fill-rule="nonzero" d="M196 397h96v15h-96z"/>
  <path fill="#0B0C0C" fill-rule="nonzero" d="M196 412h96v2h-96z"/>
</svg>
